# xmcd CD database file
#
# Track frame offsets:
#	150
#	23057
#	44747
#	65570
#	82307
#	109205
#	130070
#	156542
#	185287
#	204547
#	227252
#	253515
#	274220
#	292800
#	308762
#	325530
#
# Disc length: 4599 seconds
#
# Revision: 2
# Processed by: cddbd v1.5.1PL0 Copyright (c) Steve Scherf et al.
# Submitted via: CDex 1.51
#
DISCID=e211f510
DTITLE=R&B's Greatest Hits 1985 - 1995 - The Gold Seal Collection - Disk2
DYEAR=1900
DGENRE=
TTITLE0=Bobby Brown - Good Enough
TTITLE1=Shai - If I Ever Fall In Love
TTITLE2=Bell Biv Devoe - Gangsta
TTITLE3=Father MC - Everythings Gonna Be Alright
TTITLE4=Christopher Williams - Where Are You Now
TTITLE5=Shai - Baby I'm Yours
TTITLE6=Jodeci - Lately
TTITLE7=Aaron Hall - I Miss You
TTITLE8=Immature - Never Lie
TTITLE9=Chante Moore - Old School Lovin'
TTITLE10=Mary J. Blige - Be Happy
TTITLE11=Soul For Real - Candy Rain
TTITLE12=Ebony Vibe Everlasting - Groove Of Love
TTITLE13=Heavy D and The Boyz - This Is Your Night
TTITLE14=Mary J. Blige - I'm Goin' Down
TTITLE15=Jodeci - Freek 'N You
EXTD=
EXTT0=Bobby Brown
EXTT1=Shai
EXTT2=Bell Biv Devoe
EXTT3=Father MC
EXTT4=Christopher Williams
EXTT5=Shai
EXTT6=Jodeci
EXTT7=Aaron Hall
EXTT8=Immature
EXTT9=Chante Moore
EXTT10=Mary J Blige
EXTT11=Soul for Real
EXTT12=Ebony Vibe Everlasting
EXTT13=Heavy D and The Boyz
EXTT14=Mary J Blige
EXTT15=Jodeci
PLAYORDER=
